<svg xmlns="http://www.w3.org/2000/svg" viewBox="0 0 320 200"><rect width="320" height="200" fill="#f3f3ef"/><line x1="10" y1="172" x2="310" y2="172" stroke="#d9d9d2" stroke-width="3"/><rect x="40" y="140" width="150" height="30" rx="15" fill="#33383d"/><circle cx="58" cy="155" r="7" fill="#8a9096"/><circle cx="86" cy="155" r="7" fill="#8a9096"/><circle cx="114" cy="155" r="7" fill="#8a9096"/><circle cx="142" cy="155" r="7" fill="#8a9096"/><circle cx="170" cy="155" r="7" fill="#8a9096"/>
<rect x="52" y="124" width="120" height="16" fill="#33383d"/><rect x="50" y="92" width="120" height="34" rx="4" fill="#e0680b"/>
<rect x="62" y="56" width="46" height="38" rx="4" fill="#e0680b"/><rect x="70" y="62" width="30" height="22" rx="2" fill="#cfe3f1"/>
<path d="M150 100 L222 46" stroke="#e0680b" stroke-width="15" stroke-linecap="round"/><path d="M222 46 L262 118" stroke="#e0680b" stroke-width="11" stroke-linecap="round"/>
<path d="M252 112 L286 118 L278 146 L256 140 Z" fill="#33383d"/><path d="M180 82 L210 58" stroke="#33383d" stroke-width="4"/></svg>