<svg xmlns="http://www.w3.org/2000/svg" viewBox="0 0 320 200"><rect width="320" height="200" fill="#f3f3ef"/><line x1="10" y1="172" x2="310" y2="172" stroke="#d9d9d2" stroke-width="3"/><rect x="30" y="124" width="240" height="24" rx="4" fill="#e0680b"/><rect x="236" y="92" width="50" height="40" rx="4" fill="#e0680b"/><rect x="244" y="99" width="34" height="22" rx="2" fill="#cfe3f1"/>
<circle cx="60" cy="154" r="14" fill="#33383d"/><circle cx="60" cy="154" r="6.3" fill="#8a9096"/><circle cx="94" cy="154" r="14" fill="#33383d"/><circle cx="94" cy="154" r="6.3" fill="#8a9096"/><circle cx="176" cy="154" r="14" fill="#33383d"/><circle cx="176" cy="154" r="6.3" fill="#8a9096"/><circle cx="210" cy="154" r="14" fill="#33383d"/><circle cx="210" cy="154" r="6.3" fill="#8a9096"/><circle cx="262" cy="154" r="14" fill="#33383d"/><circle cx="262" cy="154" r="6.3" fill="#8a9096"/><rect x="110" y="104" width="60" height="22" rx="3" fill="#33383d"/>
<path d="M130 110 L40 24" stroke="#e0680b" stroke-width="13" stroke-linecap="round"/><path d="M84 66 L60 44" stroke="#33383d" stroke-width="3"/>
<path d="M40 24 L40 96" stroke="#33383d" stroke-width="2"/><path d="M34 96 L46 96 L40 106 Z" fill="#33383d"/><path d="M150 112 L108 72" stroke="#33383d" stroke-width="7" stroke-linecap="round"/></svg>