<svg xmlns="http://www.w3.org/2000/svg" viewBox="0 0 1440 420" preserveAspectRatio="xMidYMax slice" role="img" aria-label="Construction site at dusk with cranes, an excavator and a telehandler">
  <defs>
    <linearGradient id="sky" x1="0" y1="0" x2="0" y2="1">
      <stop offset="0" stop-color="#16171a" stop-opacity="0"/>
      <stop offset="0.55" stop-color="#3a2415" stop-opacity="0.55"/>
      <stop offset="1" stop-color="#b9581a" stop-opacity="0.55"/>
    </linearGradient>
    <radialGradient id="sun" cx="0.72" cy="0.92" r="0.35">
      <stop offset="0" stop-color="#f3b26b" stop-opacity="0.85"/>
      <stop offset="0.4" stop-color="#d77a2c" stop-opacity="0.35"/>
      <stop offset="1" stop-color="#b9581a" stop-opacity="0"/>
    </radialGradient>
    <linearGradient id="far" x1="0" y1="0" x2="0" y2="1">
      <stop offset="0" stop-color="#2b2a2c"/>
      <stop offset="1" stop-color="#1e1e21"/>
    </linearGradient>
  </defs>
  <rect width="1440" height="420" fill="url(#sky)"/>
  <rect width="1440" height="420" fill="url(#sun)"/>
  <!-- distant skyline -->
  <path fill="#2a2728" opacity="0.8" d="M0 330h60v-40h40v-30h50v50h30v-80h55v100h40v-55h45v35h60v-90h36v110h52v-45h58v60h40v-120h48v130h44v-60h38v40h52v-95h46v120h60v-50h40v70h54v-110h40v120h42v-40h56v55h48v-85h40v100h60v-35h54v45h50v-70h40v80H1440v90H0z"/>
  <!-- tower crane left -->
  <g stroke="#c9a45c" stroke-width="3" fill="none" opacity="0.9">
    <path d="M250 330V80M270 330V80"/>
    <path d="M250 110l20 30M270 140l-20 30M250 170l20 30M270 200l-20 30M250 230l20 30M270 260l-20 30M250 290l20 30"/>
    <path d="M120 80h420M150 80v14M540 80v14"/>
    <path d="M260 80l-10-40h20z" />
    <path d="M260 40L130 80M260 40l280 40"/>
    <path d="M470 80v120"/>
  </g>
  <rect x="455" y="200" width="30" height="16" fill="#b9581a"/>
  <rect x="120" y="80" width="40" height="22" fill="#c9a45c" opacity="0.9"/>
  <!-- tower crane right -->
  <g stroke="#c9a45c" stroke-width="2.4" fill="none" opacity="0.55">
    <path d="M1180 330V140M1195 330V140M1180 165l15 22M1195 187l-15 22M1180 209l15 22M1195 231l-15 22M1180 253l15 22M1195 275l-15 22"/>
    <path d="M1070 140h330M1188 140l-8-30h16zM1188 110l-110 30M1188 110l210 30M1330 140v70"/>
  </g>
  <!-- ground -->
  <path fill="url(#far)" d="M0 350c160-18 330-20 520-12s370 20 560 10 260-14 360-8v80H0z"/>
  <path fill="#141416" d="M0 382c220-10 470-8 720-4s520 8 720-2v44H0z"/>
  <!-- excavator -->
  <g transform="translate(610 262)">
    <rect x="0" y="92" width="200" height="30" rx="15" fill="#1d1d20"/>
    <g fill="#3a3a3f"><circle cx="22" cy="107" r="8"/><circle cx="60" cy="107" r="8"/><circle cx="100" cy="107" r="8"/><circle cx="140" cy="107" r="8"/><circle cx="178" cy="107" r="8"/></g>
    <rect x="22" y="72" width="160" height="22" fill="#26262a"/>
    <rect x="18" y="36" width="160" height="40" rx="6" fill="#c2611a"/>
    <rect x="30" y="0" width="60" height="42" rx="6" fill="#c2611a"/>
    <rect x="40" y="8" width="40" height="24" rx="3" fill="#f3c38f" opacity="0.8"/>
    <path d="M160 44L262 -26" stroke="#c2611a" stroke-width="18" stroke-linecap="round"/>
    <path d="M262 -26L310 70" stroke="#c2611a" stroke-width="13" stroke-linecap="round"/>
    <path d="M296 62l40 8-10 34-28-8z" fill="#1d1d20"/>
    <path d="M200 20l36-26" stroke="#1d1d20" stroke-width="5"/>
  </g>
  <!-- telehandler -->
  <g transform="translate(1010 300)" opacity="0.95">
    <rect x="0" y="28" width="150" height="34" rx="6" fill="#a95318"/>
    <rect x="90" y="0" width="44" height="36" rx="5" fill="#a95318"/>
    <rect x="98" y="6" width="28" height="20" rx="2" fill="#f3c38f" opacity="0.7"/>
    <path d="M40 34L-60 -30" stroke="#8c4513" stroke-width="12" stroke-linecap="round"/>
    <path d="M-66 -36v30M-66 -6h-26" stroke="#1d1d20" stroke-width="5"/>
    <circle cx="30" cy="66" r="17" fill="#1d1d20"/><circle cx="30" cy="66" r="7" fill="#48484e"/>
    <circle cx="122" cy="66" r="17" fill="#1d1d20"/><circle cx="122" cy="66" r="7" fill="#48484e"/>
  </g>
  <!-- site fence & lights -->
  <g stroke="#c9a45c" stroke-opacity="0.35" stroke-width="2"><path d="M0 372h560M860 372h580"/><path d="M40 358v14M100 358v14M160 358v14M220 358v14M280 358v14M340 358v14M400 358v14M460 358v14M520 358v14M900 358v14M960 358v14M1020 358v14M1080 358v14M1140 358v14M1200 358v14M1260 358v14M1320 358v14M1380 358v14"/></g>
  <g fill="#f3b26b"><circle cx="470" cy="206" r="2.5"/><circle cx="1330" cy="212" r="2"/><circle cx="560" cy="86" r="2"/></g>
</svg>
